<svg width="22" height="18" viewBox="0 0 22 18" fill="none" xmlns="http://www.w3.org/2000/svg">
<path d="M21.6471 9.00026C21.6471 8.78119 21.5088 8.49009 21.3686 8.34867L13.4627 0.295617C13.0936 -0.0701586 12.4956 -0.112452 12.0654 0.258611C11.6808 0.590688 11.6711 1.23797 12.0268 1.59849L18.373 8.05265L0.988162 8.05265C0.442197 8.05265 -4.16268e-07 8.47691 -3.93405e-07 8.99995C-3.70527e-07 9.52334 0.442559 9.94726 0.988162 9.94726L18.373 9.94725L12.0268 16.4014C11.6711 16.7619 11.6963 17.3934 12.0654 17.741C12.4549 18.108 13.0995 18.0753 13.4627 17.7039L21.3686 9.65124C21.6009 9.43283 21.6433 9.22263 21.6471 9.00026Z" fill="#DFDFDF"/>
</svg>
