<svg width="44" height="44" viewBox="0 0 44 44" fill="none" xmlns="http://www.w3.org/2000/svg">
<rect x="0.5" y="0.5" width="43" height="43" rx="7.5" fill="#F1F5F9" stroke="#323232"/>
<path fill-rule="evenodd" clip-rule="evenodd" d="M20.0803 28.5928H13.7793C13.3653 28.5928 13.0293 28.2568 13.0293 27.8428C13.0293 27.4288 13.3653 27.0928 13.7793 27.0928H20.0803C20.4943 27.0928 20.8303 27.4288 20.8303 27.8428C20.8303 28.2568 20.4943 28.5928 20.0803 28.5928Z" fill="#323232"/>
<path fill-rule="evenodd" clip-rule="evenodd" d="M29.1906 18.9004H22.8906C22.4766 18.9004 22.1406 18.5644 22.1406 18.1504C22.1406 17.7364 22.4766 17.4004 22.8906 17.4004H29.1906C29.6046 17.4004 29.9406 17.7364 29.9406 18.1504C29.9406 18.5644 29.6046 18.9004 29.1906 18.9004Z" fill="#323232"/>
<mask id="mask0_50_9815" style="mask-type:luminance" maskUnits="userSpaceOnUse" x="13" y="15" width="7" height="7">
<path fill-rule="evenodd" clip-rule="evenodd" d="M13 15.0004H19.2258V21.192H13V15.0004Z" fill="white"/>
</mask>
<g mask="url(#mask0_50_9815)">
<path fill-rule="evenodd" clip-rule="evenodd" d="M16.113 16.5C15.224 16.5 14.5 17.216 14.5 18.097C14.5 18.977 15.224 19.692 16.113 19.692C17.003 19.692 17.726 18.977 17.726 18.097C17.726 17.216 17.003 16.5 16.113 16.5ZM16.113 21.192C14.397 21.192 13 19.804 13 18.097C13 16.39 14.397 15 16.113 15C17.83 15 19.226 16.39 19.226 18.097C19.226 19.804 17.83 21.192 16.113 21.192Z" fill="#323232"/>
</g>
<path fill-rule="evenodd" clip-rule="evenodd" d="M27.3874 26.208C26.4974 26.208 25.7734 26.924 25.7734 27.804C25.7734 28.685 26.4974 29.4 27.3874 29.4C28.2764 29.4 28.9994 28.685 28.9994 27.804C28.9994 26.924 28.2764 26.208 27.3874 26.208ZM27.3874 30.9C25.6704 30.9 24.2734 29.511 24.2734 27.804C24.2734 26.097 25.6704 24.708 27.3874 24.708C29.1034 24.708 30.4994 26.097 30.4994 27.804C30.4994 29.511 29.1034 30.9 27.3874 30.9Z" fill="#323232"/>
</svg>
