<svg width="44" height="44" viewBox="0 0 44 44" fill="none" xmlns="http://www.w3.org/2000/svg">
<rect x="0.5" y="0.5" width="43" height="43" rx="7.5" fill="#101213" stroke="#212121"/>
<path fill-rule="evenodd" clip-rule="evenodd" d="M20.0801 28.5928H13.7791C13.3651 28.5928 13.0291 28.2568 13.0291 27.8428C13.0291 27.4288 13.3651 27.0928 13.7791 27.0928H20.0801C20.4941 27.0928 20.8301 27.4288 20.8301 27.8428C20.8301 28.2568 20.4941 28.5928 20.0801 28.5928Z" fill="#DFDFDF"/>
<path fill-rule="evenodd" clip-rule="evenodd" d="M29.1909 18.9004H22.8909C22.4769 18.9004 22.1409 18.5644 22.1409 18.1504C22.1409 17.7364 22.4769 17.4004 22.8909 17.4004H29.1909C29.6049 17.4004 29.9409 17.7364 29.9409 18.1504C29.9409 18.5644 29.6049 18.9004 29.1909 18.9004Z" fill="#DFDFDF"/>
<mask id="mask0_12_8154" style="mask-type:luminance" maskUnits="userSpaceOnUse" x="13" y="15" width="7" height="7">
<path fill-rule="evenodd" clip-rule="evenodd" d="M13 15.0004H19.2258V21.192H13V15.0004Z" fill="white"/>
</mask>
<g mask="url(#mask0_12_8154)">
<path fill-rule="evenodd" clip-rule="evenodd" d="M16.1128 16.5C15.2238 16.5 14.4998 17.216 14.4998 18.097C14.4998 18.977 15.2238 19.692 16.1128 19.692C17.0028 19.692 17.7258 18.977 17.7258 18.097C17.7258 17.216 17.0028 16.5 16.1128 16.5ZM16.1128 21.192C14.3968 21.192 12.9998 19.804 12.9998 18.097C12.9998 16.39 14.3968 15 16.1128 15C17.8298 15 19.2258 16.39 19.2258 18.097C19.2258 19.804 17.8298 21.192 16.1128 21.192Z" fill="#DFDFDF"/>
</g>
<path fill-rule="evenodd" clip-rule="evenodd" d="M27.3877 26.208C26.4977 26.208 25.7737 26.924 25.7737 27.804C25.7737 28.685 26.4977 29.4 27.3877 29.4C28.2767 29.4 28.9997 28.685 28.9997 27.804C28.9997 26.924 28.2767 26.208 27.3877 26.208ZM27.3877 30.9C25.6707 30.9 24.2737 29.511 24.2737 27.804C24.2737 26.097 25.6707 24.708 27.3877 24.708C29.1037 24.708 30.4997 26.097 30.4997 27.804C30.4997 29.511 29.1037 30.9 27.3877 30.9Z" fill="#DFDFDF"/>
</svg>
