<svg width="63" height="73" viewBox="0 0 63 73" fill="none" xmlns="http://www.w3.org/2000/svg">
<g clip-path="url(#clip0_83_4307)">
<path d="M35.0369 47.657L33.7593 71.623L33.6819 72.9217C31.7849 72.6462 29.9652 71.9772 28.3779 70.9146L5.88451 55.9998C3.98747 54.7405 2.43887 52.9696 1.39357 50.9233C0.386978 48.8376 -0.116317 46.5157 -0.000171682 44.1939L1.471 16.9222C1.58714 14.9939 2.12915 13.0656 3.0196 11.3734L23.8483 25.1863L23.5386 30.8532C23.3837 33.5292 23.9257 36.2052 25.1259 38.6058C26.326 41.0063 28.1456 43.0527 30.3524 44.5087L35.0369 47.657Z" fill="#FF9D98"/>
<path d="M62.7191 26.6813C62.7191 26.6813 61.6351 46.9875 61.248 53.8743C60.9382 54.74 58.4218 57.1799 54.8987 60.2888L56.1376 27.6651C56.2537 24.4775 54.7826 21.4867 52.1887 19.7158L25.5527 1.45594C30.1598 0.393407 33.5667 -0.19689 34.4185 0.0392288C40.1096 3.81713 56.8345 14.9147 56.8345 14.9147C58.7315 16.174 60.2801 17.9449 61.3254 19.9912C62.332 22.077 62.8353 24.3988 62.7191 26.6813Z" fill="white"/>
<path d="M45.9942 29.6725L44.4843 69.0256C43.4003 69.8913 42.2775 70.7964 41.1935 71.6622C39.5288 72.528 37.6705 73.0002 35.7734 73.0396L37.9802 32.6633C38.0189 32.2698 37.8253 31.9156 37.5156 31.7188L4.2207 9.64173C5.38215 8.14631 6.85332 6.88701 8.51807 6.02124C9.83438 5.62771 11.1894 5.27354 12.5444 4.88L44.6392 26.9177C45.5296 27.508 46.0716 28.5706 45.9942 29.6725Z" fill="white"/>
<path d="M54.0069 27.6258L52.6906 62.2172C50.8323 63.8307 48.8191 65.5228 46.6898 67.2544L48.1223 29.7902C48.1997 27.9013 47.3092 26.1304 45.7606 25.0679L15.1758 4.09265C17.8084 3.3843 20.4023 2.7153 22.7252 2.125L50.9484 21.5261C52.9616 22.9034 54.1231 25.1859 54.0069 27.6258Z" fill="white"/>
</g>
<defs>
<clipPath id="clip0_83_4307">
<rect width="62.7183" height="73" fill="white"/>
</clipPath>
</defs>
</svg>
