<svg width="49" height="49" viewBox="0 0 49 49" fill="none" xmlns="http://www.w3.org/2000/svg">
<path fill-rule="evenodd" clip-rule="evenodd" d="M9.57031 0H39.4297C41.9664 0.00488172 44.3978 1.01475 46.1915 2.80847C47.9853 4.6022 48.9951 7.03361 49 9.57031V39.4297C48.9951 41.9664 47.9853 44.3978 46.1915 46.1915C44.3978 47.9853 41.9664 48.9951 39.4297 49H9.57031C7.03361 48.9951 4.6022 47.9853 2.80847 46.1915C1.01475 44.3978 0.00488172 41.9664 0 39.4297L0 9.57031C0.00488172 7.03361 1.01475 4.6022 2.80847 2.80847C4.6022 1.01475 7.03361 0.00488172 9.57031 0V0ZM30.6148 15.5178C30.4488 15.348 30.2507 15.2128 30.0321 15.12C29.8135 15.0273 29.5786 14.9789 29.3411 14.9776C29.1037 14.9764 28.8683 15.0222 28.6487 15.1126C28.4291 15.2029 28.2296 15.336 28.0617 15.504C27.8939 15.672 27.7611 15.8717 27.671 16.0914C27.581 16.3111 27.5354 16.5465 27.537 16.784C27.5385 17.0215 27.5872 17.2563 27.6802 17.4748C27.7732 17.6933 27.9086 17.8912 28.0786 18.057L32.7305 22.7068H17.8155C17.3415 22.7103 16.888 22.901 16.5541 23.2374C16.2201 23.5739 16.0327 24.0287 16.0327 24.5027C16.0327 24.9768 16.2201 25.4316 16.5541 25.768C16.888 26.1044 17.3415 26.2952 17.8155 26.2986H32.7305L28.0782 30.9485C27.9071 31.114 27.7706 31.3119 27.6767 31.5307C27.5828 31.7494 27.5334 31.9847 27.5314 32.2228C27.5294 32.4609 27.5748 32.697 27.665 32.9173C27.7552 33.1377 27.8883 33.3378 28.0567 33.5062C28.225 33.6745 28.4252 33.8077 28.6455 33.8979C28.8659 33.9881 29.102 34.0335 29.34 34.0315C29.5781 34.0294 29.8134 33.9801 30.0322 33.8862C30.251 33.7923 30.4489 33.6558 30.6144 33.4846L38.3301 25.7729C38.4969 25.6062 38.6293 25.4083 38.7196 25.1904C38.8099 24.9726 38.8563 24.739 38.8563 24.5032C38.8563 24.2674 38.8099 24.0339 38.7196 23.816C38.6293 23.5982 38.4969 23.4002 38.3301 23.2336L30.6148 15.5183V15.5178ZM10.1439 30.783C10.1439 31.2593 10.3331 31.7161 10.6699 32.0529C11.0066 32.3897 11.4634 32.5789 11.9397 32.5789C12.416 32.5789 12.8728 32.3897 13.2096 32.0529C13.5464 31.7161 13.7356 31.2593 13.7356 30.783V18.2198C13.7356 17.7435 13.5464 17.2867 13.2096 16.9499C12.8728 16.6131 12.416 16.4239 11.9397 16.4239C11.4634 16.4239 11.0066 16.6131 10.6699 16.9499C10.3331 17.2867 10.1439 17.7435 10.1439 18.2198V30.783Z" fill="#FF9D98"/>
</svg>
